PathFileType	3	(X/Y/Z)	C:\Users\koon_\Desktop\
DataRate	CameraRate	NumFrames	NumMarkers	Units	OrigDataRate	OrigDataStartFrame	OrigNumFrames
100.0	100.0	10	27	mm	100.0	4411	5041	
Frame#	Time	get:LFHD			get:RFHD			get:LBHD			get:RBHD			get:C7			get:T10			get:CLAV			get:STRN			get:RBAK			get:LSHO			get:LUPA			get:LELB			get:LFRA			get:LWRA			get:LWRB			get:LFIN			get:RSHO			get:RUPA			get:RELB			get:RFRA			get:RWRA			get:RWRB			get:RFIN			get:LASI			get:RASI			get:LPSI			get:RPSI			
		X1	Y1	Z1	X2	Y2	Z2	X3	Y3	Z3	X4	Y4	Z4	X5	Y5	Z5	X6	Y6	Z6	X7	Y7	Z7	X8	Y8	Z8	X9	Y9	Z9	X10	Y10	Z10	X11	Y11	Z11	X12	Y12	Z12	X13	Y13	Z13	X14	Y14	Z14	X15	Y15	Z15	X16	Y16	Z16	X17	Y17	Z17	X18	Y18	Z18	X19	Y19	Z19	X20	Y20	Z20	X21	Y21	Z21	X22	Y22	Z22	X23	Y23	Z23	X24	Y24	Z24	X25	Y25	Z25	X26	Y26	Z26	X27	Y27	Z27	
4411	44.1	42.465012	1450.5087	34.613808	-99.61573	1484.4142	15.556104	72.129349	1515.0681	-81.910538	-75.806839	1541.9702	-103.90738	-65.934418	1344.3456	-239.45462	-17.294724	1153.4991	-257.63705	-15.275716	1266.1393	-50.122425	15.635304	1116.9115	-0.93461198	-129.55827	1275.1469	-239.99182	-3.0975022	1395.8956	-203.64584	20.423149	1477.564	-206.98929	54.062424	1614.6646	-233.19664	11.79794	1538.5813	-242.75107	-67.97345	1406.8375	-202.96037	-121.0733	1458.4861	-208.58009	-157.15494	1397.7701	-230.73279	-162.1131	1358.6808	-118.73892	-223.44022	1235.1465	-110.22528	-271.56247	1029.48	-180.62439	-259.60413	904.75574	-83.904701	-262.98386	810.09741	-64.27475	-314.72345	822.13971	-116.26106	-319.41458	756.30573	-52.341797	146.22412	907.32404	-104.33109	-139.43376	902.68768	-43.778851	18.690508	932.13464	-264.71375	-66.502419	925.97742	-251.311
4412	44.11	41.884434	1450.8636	34.926151	-100.09268	1485.2056	15.112245	72.205429	1514.8149	-81.824028	-75.640724	1542.1437	-104.54417	-66.011414	1344.2108	-239.14316	-17.377851	1153.4268	-257.41806	-15.531405	1266.0363	-49.907524	15.33717	1116.7943	-0.80603391	-129.58437	1275.1483	-239.99686	-3.1265869	1395.8511	-203.46234	20.539827	1477.5651	-206.86116	54.270321	1614.6432	-232.88602	12.036013	1538.5293	-242.48575	-67.82753	1406.7183	-202.80457	-120.86082	1458.4297	-208.71506	-157.05031	1397.7203	-230.79167	-162.23238	1358.5432	-118.71147	-223.57454	1235.0814	-110.14534	-271.36652	1029.2544	-180.33556	-259.49789	904.79749	-83.283173	-262.76974	810.14465	-63.285805	-314.41837	821.94202	-115.43272	-319.17529	756.3728	-51.33503	146.01685	907.26257	-104.107	-139.68221	902.6889	-43.874981	18.622797	932.10803	-264.60742	-66.59153	925.97833	-251.33684
4413	44.12	41.329437	1451.2415	35.115673	-100.55238	1485.9642	14.686652	72.283615	1514.5675	-81.717308	-75.352264	1542.264	-105.0981	-65.999573	1344.1704	-239.00829	-17.384581	1153.4098	-257.29697	-15.755359	1265.9763	-49.622955	15.028879	1116.7267	-0.55984116	-129.60974	1275.0779	-239.93889	-3.1654365	1395.814	-203.28818	19.907192	1478.0767	-208.21988	54.477413	1614.6074	-232.63429	12.279763	1538.4769	-242.27263	-67.708794	1406.6395	-202.66064	-120.72946	1458.429	-208.70125	-156.9415	1397.6499	-230.69666	-162.35207	1358.4305	-118.66418	-223.72362	1235.0258	-110.0594	-271.23187	1029.0299	-179.98721	-259.39243	904.79327	-82.683022	-262.57016	810.23853	-62.394768	-314.12823	821.78479	-114.66018	-318.96838	756.43689	-50.421658	145.81903	907.22369	-103.89204	-139.96318	902.65546	-44.015842	18.548004	932.17004	-264.56424	-66.651932	926.01929	-251.42503
4414	44.13	40.667297	1451.5869	35.369389	-101.09902	1486.7881	14.100768	72.36441	1514.3063	-81.611755	-75.093262	1542.379	-105.6178	-65.998405	1344.0924	-238.82246	-17.416653	1153.369	-257.11856	-15.962742	1265.9215	-49.319889	14.671373	1116.6157	-0.37858999	-129.63499	1275.0699	-239.88768	-3.1813776	1395.7577	-203.024	20.998695	1477.5872	-206.29283	54.697571	1614.5925	-232.46733	12.471284	1538.483	-242.04961	-67.655899	1406.6747	-202.61435	-120.66467	1458.4403	-208.5094	-157.026	1397.7362	-230.54099	-162.46318	1358.3041	-118.68922	-223.81476	1234.9563	-110.04137	-271.15924	1028.7996	-179.63991	-259.24017	904.74438	-82.00296	-262.37814	810.24805	-61.50626	-313.87466	821.66821	-114.05094	-318.76791	756.5127	-49.476566	145.60228	907.16205	-103.65617	-140.25742	902.62384	-44.152172	18.543409	932.18262	-264.43784	-66.687164	926.00848	-251.47781
4415	44.14	40.060612	1451.9423	35.60886	-101.33141	1487.3507	13.741612	72.466019	1514.0852	-81.461983	-74.763512	1542.462	-106.13056	-65.977402	1344.089	-238.742	-17.427563	1153.3434	-257.01019	-16.11639	1265.8685	-49.049152	14.328729	1116.5176	-0.14717972	-129.61351	1274.9987	-239.83905	-3.155515	1395.7295	-202.81265	20.312141	1478.2412	-207.68279	54.994316	1614.5718	-232.50104	12.669604	1538.4794	-241.90041	-67.652946	1406.8291	-202.62732	-120.66566	1458.7131	-208.56471	-157.08566	1397.8785	-230.37869	-162.58238	1358.1827	-118.72755	-223.9014	1234.9076	-109.98972	-271.10959	1028.5529	-179.25533	-259.03259	904.70245	-81.358414	-262.16916	810.28406	-60.587803	-313.57864	821.46185	-113.08614	-318.46527	756.56689	-48.451199	145.35124	907.12067	-103.34327	-140.59001	902.59912	-44.271591	18.540123	932.24646	-264.35379	-66.669212	926.0434	-251.49583
4416	44.15	39.48727	1452.2692	35.82135	-101.88959	1488.1104	13.21285	72.546432	1513.8818	-81.336113	-74.583626	1542.5931	-106.71976	-65.917435	1344.0818	-238.72684	-17.45458	1153.3534	-256.8609	-16.330589	1265.8208	-48.787411	13.9974	1116.4518	-0.026173782	-129.61342	1274.9998	-239.8387	-3.0960569	1395.7009	-202.55414	20.536631	1478.3517	-207.40256	55.295864	1614.5431	-232.58543	12.893717	1538.4924	-241.99585	-67.629257	1407.0238	-202.69536	-120.55848	1458.907	-208.59799	-157.20963	1398.0515	-230.25096	-162.70418	1358.0632	-118.65686	-223.99382	1234.8419	-109.92973	-271.06949	1028.2999	-178.69934	-258.89941	904.66907	-80.680107	-261.90738	810.35693	-59.914799	-313.35901	821.27252	-112.19797	-318.22522	756.57703	-47.489147	145.11992	907.07111	-103.05115	-141.00134	902.57764	-44.375828	18.55784	932.2525	-264.22397	-66.73719	926.11542	-251.36688
4417	44.16	38.939938	1452.5413	36.100113	-102.27107	1488.6765	12.76608	72.627213	1513.6564	-81.191391	-74.309921	1542.6523	-107.18678	-65.902435	1344.0579	-238.56067	-17.457064	1153.3522	-256.68295	-16.515797	1265.7515	-48.558754	13.638907	1116.4078	0.10213435	-129.60454	1275.0481	-240.06886	-3.0015433	1395.674	-202.29491	20.638197	1478.3512	-207.26492	55.663666	1614.5146	-232.8226	13.195238	1538.5233	-242.06578	-67.654106	1407.2919	-202.81418	-120.51557	1459.2408	-208.7135	-157.32986	1398.2134	-230.11559	-162.90422	1357.9653	-118.69335	-224.06772	1234.7703	-109.90337	-271.04556	1028.0634	-178.32707	-258.71796	904.63062	-80.121613	-261.6936	810.4129	-59.131157	-313.17313	821.20148	-111.47742	-317.96121	756.67334	-46.449318	144.83998	907.01685	-102.71311	-141.33783	902.51166	-44.495903	18.593836	932.30579	-264.07095	-66.741005	926.15393	-251.33228
4418	44.17	38.439697	1452.7968	36.320328	-102.66824	1489.2275	12.338756	72.683815	1513.4797	-81.02536	-73.433037	1542.5134	-107.32862	-65.862083	1343.9692	-238.30481	-17.387043	1153.3564	-256.52982	-16.713755	1265.7327	-48.289848	13.225156	1116.3176	0.40534982	-129.63182	1274.988	-239.88261	-2.9223692	1395.6128	-202.09218	20.824266	1478.4149	-207.32591	55.738426	1614.4319	-232.7545	13.563631	1538.512	-242.25763	-67.605659	1407.5415	-202.97701	-120.49167	1459.5403	-209.08051	-157.39957	1398.349	-230.12816	-163.04425	1357.8328	-118.74426	-224.17476	1234.6893	-109.93668	-271.0553	1027.8488	-177.93767	-258.58789	904.63416	-79.560112	-261.46393	810.53467	-58.280533	-312.97293	821.12689	-110.59727	-317.70734	756.80145	-45.46381	144.58228	906.98596	-102.34296	-141.67178	902.492	-44.591362	18.631397	932.32434	-263.90631	-66.952225	926.22479	-250.68123
4419	44.18	37.963387	1453.0146	36.478863	-102.91857	1489.7571	12.083716	72.742088	1513.3185	-80.905685	-73.722916	1542.861	-107.92398	-65.788719	1343.9259	-238.29356	-17.364521	1153.3303	-256.33963	-16.956663	1265.6934	-48.094696	12.839139	1116.3016	0.59425139	-129.68552	1274.8173	-239.72736	-2.8372521	1395.5616	-201.89761	22.154758	1477.8585	-205.32733	56.474789	1614.3661	-233.5858	13.943174	1538.4851	-242.60388	-67.627708	1407.8147	-203.19368	-120.40317	1459.9098	-209.68039	-157.46387	1398.4707	-230.21477	-163.25107	1357.6934	-118.76242	-224.26294	1234.6025	-109.92928	-271.0047	1027.6371	-177.66895	-258.45285	904.74976	-78.989548	-261.29022	810.74426	-57.663517	-312.80249	821.10962	-109.81908	-317.58691	756.94012	-44.595398	144.32222	906.93536	-101.96901	-141.99777	902.47607	-44.605492	18.650589	932.33527	-263.67868	-66.963425	926.28723	-250.66098
4420	44.19	37.535934	1453.2795	36.725567	-103.23148	1490.2192	11.812699	72.72892	1513.1807	-80.743294	-73.119064	1542.717	-108.00578	-65.675453	1343.9048	-238.31493	-17.327572	1153.2256	-256.07651	-17.194233	1265.6763	-47.846439	12.417916	1116.244	0.82070237	-129.70782	1274.7405	-239.77075	-2.6873996	1395.4958	-201.71133	22.563997	1477.8701	-205.37115	57.034367	1614.2538	-234.2122	14.414561	1538.3701	-242.9437	-67.547997	1408.0999	-203.50864	-120.35815	1460.064	-209.74348	-157.44366	1398.5378	-230.34268	-163.37314	1357.5723	-118.81519	-224.39691	1234.5151	-109.9315	-270.96155	1027.4741	-177.53691	-258.31952	904.86151	-78.417267	-261.09631	810.89294	-56.820347	-312.64185	821.15619	-109.27917	-317.49377	757.13776	-43.755402	144.06703	906.90405	-101.55194	-142.3161	902.44971	-44.639591	18.663095	932.3092	-263.42126	-66.960266	926.29376	-250.57896
